<svg width="178" height="178" viewBox="0 0 178 178" fill="none" xmlns="http://www.w3.org/2000/svg">
<rect width="178" height="178" fill="black"/>
<path d="M130.394 146.592C125.339 151.402 119.075 140.997 116.767 137.507C109.778 126.913 102.861 115.067 99.5133 103.167C99.0199 101.411 99.997 100.532 101.371 102.041C104.699 105.696 108.791 110.617 113.115 112.888C122.069 117.586 121.358 96.31 121.184 92.5635C120.619 80.7189 118.435 69.4599 114.629 58.7865C111.785 50.8032 107.543 44.0867 101.83 38.001C100.547 36.6292 99.7923 35.5534 99.5665 34.7737C98.8264 32.221 100.868 30.44 103.233 30.1973C105.394 29.9741 107.322 30.8055 109.018 32.6918C116.052 40.5197 121.324 48.3622 124.763 58.0634C128.02 67.2615 130.482 76.6844 132.15 86.3322C134.849 101.978 136.198 118.416 134.438 134.086C134.031 137.706 132.938 144.171 130.394 146.592Z" fill="white"/>
<path d="M55.3236 71.1408C51.7151 72.5813 48.3059 74.0023 45.0961 75.4039C43.997 75.8808 43.3372 75.532 43.1168 74.3576C42.2025 69.5348 45.3685 60.5853 49.5023 57.933C50.222 57.4723 51.2044 57.109 52.4494 56.8429C65.5365 54.0641 77.5148 55.4073 90.3101 59.4465C91.4222 59.7969 92.27 60.2819 92.8536 60.9016C94.2105 62.3372 96.3941 67.3644 92.4208 67.1016C92.3316 67.0951 92.2442 67.112 92.1679 67.1502C89.5417 68.4788 86.8669 69.7587 84.5666 71.5496C72.2576 81.1366 63.4842 94.3638 56.0337 107.81C51.8901 115.295 50.2998 122.852 46.1758 129.977C45.5338 131.09 44.6714 131.992 43.5885 132.683C43.5186 132.727 43.4386 132.753 43.3559 132.758C43.2733 132.762 43.1908 132.746 43.1163 132.71C43.0418 132.674 42.9777 132.619 42.9302 132.552C42.8826 132.484 42.8531 132.405 42.8444 132.323C42.4019 127.928 44.0019 123.003 45.7527 119.042C53.7674 100.9 63.635 82.436 76.3184 67.2865C77.236 66.1899 76.9944 65.7844 75.5938 66.0699C71.4454 66.9215 67.4721 67.5152 63.2897 68.7708C60.6586 69.5543 57.7844 70.1577 55.3236 71.1408Z" fill="white"/>
</svg>
